<svg width="21" height="21" viewBox="0 0 21 21" fill="none" xmlns="http://www.w3.org/2000/svg">
<g clip-path="url(#clip0_423_169)">
<path d="M1.3335 3.83325V8.83325H6.3335" stroke="white" stroke-width="1.66667" stroke-linecap="round" stroke-linejoin="round"/>
<path d="M19.667 17.1667V12.1667H14.667" stroke="white" stroke-width="1.66667" stroke-linecap="round" stroke-linejoin="round"/>
<path d="M17.5752 7.99998C17.1525 6.80564 16.4342 5.73782 15.4873 4.89616C14.5403 4.05451 13.3956 3.46645 12.1599 3.18686C10.9242 2.90727 9.63787 2.94527 8.42084 3.29729C7.20381 3.64932 6.09579 4.30391 5.20016 5.19998L1.3335 8.83331M19.6668 12.1666L15.8002 15.8C14.9045 16.6961 13.7965 17.3506 12.5795 17.7027C11.3625 18.0547 10.0761 18.0927 8.8404 17.8131C7.60472 17.5335 6.46 16.9455 5.51305 16.1038C4.56611 15.2621 3.8478 14.1943 3.42516 13" stroke="white" stroke-width="1.66667" stroke-linecap="round" stroke-linejoin="round"/>
</g>
<defs>
<clipPath id="clip0_423_169">
<rect width="20" height="20" fill="white" transform="translate(0.5 0.5)"/>
</clipPath>
</defs>
</svg>
