<svg width="119" height="121" viewBox="0 0 119 121" fill="none" xmlns="http://www.w3.org/2000/svg">
<g opacity="0.1">
<path d="M95.5 15.4067H25.5C19.9772 15.4067 15.5 19.8839 15.5 25.4067V95.4067C15.5 100.93 19.9772 105.407 25.5 105.407H95.5C101.023 105.407 105.5 100.93 105.5 95.4067V25.4067C105.5 19.8839 101.023 15.4067 95.5 15.4067Z" stroke="white" stroke-width="10.4177" stroke-linecap="round" stroke-linejoin="round"/>
<path d="M43.0002 50.4072C47.1424 50.4072 50.5002 47.0494 50.5002 42.9072C50.5002 38.7651 47.1424 35.4072 43.0002 35.4072C38.8581 35.4072 35.5002 38.7651 35.5002 42.9072C35.5002 47.0494 38.8581 50.4072 43.0002 50.4072Z" stroke="white" stroke-width="10.4177" stroke-linecap="round" stroke-linejoin="round"/>
<path d="M105.5 75.4072L80.4998 50.4072L25.4998 105.407" stroke="white" stroke-width="10.4177" stroke-linecap="round" stroke-linejoin="round"/>
</g>
</svg>
