<svg width="16" height="16" viewBox="0 0 16 16" fill="none" xmlns="http://www.w3.org/2000/svg">
<path d="M12.6667 2H3.33333C2.59695 2 2 2.59695 2 3.33333V12.6667C2 13.403 2.59695 14 3.33333 14H12.6667C13.403 14 14 13.403 14 12.6667V3.33333C14 2.59695 13.403 2 12.6667 2Z" stroke="white" stroke-width="1.33333" stroke-linecap="round" stroke-linejoin="round"/>
<path d="M5.6665 6.66667C6.21879 6.66667 6.6665 6.21896 6.6665 5.66667C6.6665 5.11439 6.21879 4.66667 5.6665 4.66667C5.11422 4.66667 4.6665 5.11439 4.6665 5.66667C4.6665 6.21896 5.11422 6.66667 5.6665 6.66667Z" stroke="white" stroke-width="1.33333" stroke-linecap="round" stroke-linejoin="round"/>
<path d="M14.0002 10L10.6668 6.66667L3.3335 14" stroke="white" stroke-width="1.33333" stroke-linecap="round" stroke-linejoin="round"/>
</svg>
