<svg width="17" height="17" viewBox="0 0 17 17" fill="none" xmlns="http://www.w3.org/2000/svg">
<g clip-path="url(#clip0_9_1293)">
<path d="M15.3682 5.05502C15.289 4.73863 15.1277 4.44874 14.9006 4.21463C14.6735 3.98052 14.3887 3.81048 14.0749 3.72169C12.9282 3.44169 8.34153 3.44169 8.34153 3.44169C8.34153 3.44169 3.75486 3.44169 2.60819 3.74836C2.29436 3.83715 2.00951 4.00718 1.78242 4.24129C1.55534 4.4754 1.39405 4.7653 1.31486 5.08169C1.105 6.24539 1.00235 7.4259 1.00819 8.60836C1.00071 9.79972 1.10337 10.9892 1.31486 12.1617C1.40217 12.4683 1.56706 12.7471 1.79362 12.9713C2.02018 13.1956 2.30074 13.3576 2.60819 13.4417C3.75486 13.7484 8.34153 13.7484 8.34153 13.7484C8.34153 13.7484 12.9282 13.7484 14.0749 13.4417C14.3887 13.3529 14.6735 13.1829 14.9006 12.9488C15.1277 12.7146 15.289 12.4248 15.3682 12.1084C15.5764 10.9534 15.6791 9.78191 15.6749 8.60836C15.6823 7.41699 15.5797 6.22749 15.3682 5.05502Z" stroke="white" stroke-width="1.33" stroke-linecap="round" stroke-linejoin="round"/>
<path d="M6.84155 10.7884L10.6749 8.60836L6.84155 6.42836V10.7884Z" stroke="white" stroke-width="1.33" stroke-linecap="round" stroke-linejoin="round"/>
</g>
<defs>
<clipPath id="clip0_9_1293">
<rect width="16" height="16" fill="white" transform="translate(0.341553 0.775024)"/>
</clipPath>
</defs>
</svg>
